inDegrees=no
num_controls=7
num_derivatives=13
num_iterations=95
num_multipliers=7
num_parameters=0
num_slacks=7
num_states=26
objective=6.039158
objective_accelerations=0.362488
objective_balance=0.045931
objective_effort=0.411779
objective_height=5.108398
objective_ligament=0.110562
solver_duration=874.663333
status=Solve_Succeeded
success=true
DataType=double
version=3
OpenSimVersion=4.4-2022-07-23-0e9fedc
endheader
time	/jointset/ground_pelvis/pelvis_tilt/value	/jointset/ground_pelvis/pelvis_tx/value	/jointset/ground_pelvis/pelvis_ty/value	/jointset/hip_r/hip_flexion_r/value	/jointset/hip_r/hip_adduction_r/value	/jointset/hip_r/hip_rotation_r/value	/jointset/back/lumbar_extension/value	/jointset/patellofemoral_r/patellar_flexion_r/value	/jointset/knee_r/knee_flexion_r/value	/jointset/knee_r/knee_adduction_r/value	/jointset/knee_r/knee_rotation_r/value	/jointset/ankle_r/ankle_angle_r/value	/jointset/subtalar_r/subtalar_angle_r/value	/jointset/ground_pelvis/pelvis_tilt/speed	/jointset/ground_pelvis/pelvis_tx/speed	/jointset/ground_pelvis/pelvis_ty/speed	/jointset/hip_r/hip_flexion_r/speed	/jointset/hip_r/hip_adduction_r/speed	/jointset/hip_r/hip_rotation_r/speed	/jointset/back/lumbar_extension/speed	/jointset/patellofemoral_r/patellar_flexion_r/speed	/jointset/knee_r/knee_flexion_r/speed	/jointset/knee_r/knee_adduction_r/speed	/jointset/knee_r/knee_rotation_r/speed	/jointset/ankle_r/ankle_angle_r/speed	/jointset/subtalar_r/subtalar_angle_r/speed	/forceset/tau_hip_flexion_r	/forceset/tau_hip_adduction_r	/forceset/tau_hip_rotation_r	/forceset/tau_knee_flexion_r	/forceset/tau_ankle_angle_r	/forceset/tau_subtalar_angle_r	/forceset/tau_lumbar_extension	lambda_cid13_p0	lambda_cid14_p0	lambda_cid14_p1	lambda_cid14_p2	lambda_cid14_p3	lambda_cid14_p4	lambda_cid14_p5	/jointset/ground_pelvis/pelvis_tilt/accel	/jointset/ground_pelvis/pelvis_tx/accel	/jointset/ground_pelvis/pelvis_ty/accel	/jointset/hip_r/hip_flexion_r/accel	/jointset/hip_r/hip_adduction_r/accel	/jointset/hip_r/hip_rotation_r/accel	/jointset/back/lumbar_extension/accel	/jointset/patellofemoral_r/patellar_flexion_r/accel	/jointset/knee_r/knee_flexion_r/accel	/jointset/knee_r/knee_adduction_r/accel	/jointset/knee_r/knee_rotation_r/accel	/jointset/ankle_r/ankle_angle_r/accel	/jointset/subtalar_r/subtalar_angle_r/accel	gamma_cid13_p0	gamma_cid14_p0	gamma_cid14_p1	gamma_cid14_p2	gamma_cid14_p3	gamma_cid14_p4	gamma_cid14_p5
0.5	-0.0833271588217217	0.06126705651428222	0.8718593684188378	0.6449876781406886	-0.2269776389424951	-0.1432792694806991	-0.3111367757390826	0.6542614159910293	0.6542614159910402	0.03835966219753777	0.1743872720677253	0.2635851983370836	0.06103067544677079	-0.2213213828383861	-0.07336963191515981	-0.2938897461299494	1.280593249185272	-0.008223590647596354	0.234440626181329	-0.6047952113673865	1.582383783757827	1.582383783757659	-0.2811237877579683	-0.0005201612793224081	0.6105206460064405	0.1669786495473451	-0.06461264408049829	-0.005258344513442916	0.006828013803038731	-0.3296768556019602	0.05361547533054927	-0.0189667623432274	0.1275076192397706	-33.86117613420513	-25.51060482635507	-9.410790560678139	-1.801316736811208	5.146609057822308	-672.2488714739279	50.03826014233366	0.03848965239614086	0.2209898538567885	-0.3203388284537564	-0.7678490430276405	-0.07983678043804053	-0.5218089962212662	1.201574933542726	-1.058867588419508	-1.058867588419501	0.4130297355653155	0.004430749064430776	-0.4637178662326647	-0.09528473241452902	-9.640161123287597e-08	-1.35410612491934e-07	4.864339172678842e-07	-1.15332029831012e-06	2.690953872746461e-08	-1.687712778019517e-07	8.50276447074021e-07
0.51	-0.08553823770696571	0.06054449443838771	0.8689050839483372	0.6577533758699721	-0.2270645676226062	-0.140959797416028	-0.3171237252567778	0.6700299153681213	0.6700299153680624	0.03557138530063677	0.1743821314242095	0.2696660655892797	0.06269436076743194	-0.2208664315507822	-0.07113587315288653	-0.2968996998100292	1.272367215988552	-0.009163025329508512	0.2294706949458139	-0.5925124628680858	1.571080592752216	1.571080592752274	-0.2764907335251214	-0.0005196966498804321	0.6055606816258786	0.1657244123330509	-0.06963411164287316	-0.003591597560581495	0.007498373031002729	-0.3321319234461317	0.04886604231625826	-0.01820100172638443	0.1321516517847292	-33.00905656071411	-27.15558157275673	-9.485380529857279	-1.65334244985102	5.82515440543282	-675.1328385611048	49.90541631800928	0.05318073884967581	0.2256111616058577	-0.2812390720337116	-0.8768573411623722	-0.1012833867705292	-0.482214729459292	1.253959203168623	-1.201351201785309	-1.201351201751454	0.4945710157525763	-0.004100945102878188	-0.5259616723723677	-0.1456558055354118	-8.025888999984791e-08	-8.622576261580053e-08	5.796209479715945e-07	-7.719654334343787e-07	-1.275482078850426e-08	-1.123615640781766e-07	7.167064611584854e-07
0.52	-0.08774393050488612	0.05984447840495689	0.8659227168541838	0.6704314378907839	-0.2271609479643901	-0.1386895505722359	-0.3229853804104411	0.6856783215660648	0.6856783215660026	0.03283066449589579	0.1743766043740321	0.2756945680079929	0.06434447119803448	-0.2202441653869845	-0.06886042342242349	-0.2995062708602411	1.263066107465133	-0.01011392299953277	0.2245955820205777	-0.5797363385671009	1.558365147940458	1.558365147940741	-0.2716125693479616	-0.0005974426199249766	0.600047679309138	0.1642636715348084	-0.07465557920469638	-0.001924850607817199	0.00816873225984243	-0.3345869912902212	0.04411660930191391	-0.01743524110970893	0.1367956843302114	-32.13906693219412	-28.80797052534329	-9.557952454005903	-1.5094780175942	6.49856740355879	-678.1374867313802	49.83900819745664	0.07195262763463205	0.2293280474951173	-0.239662302480155	-0.9828641083675469	-0.08212937806054373	-0.5028453341658136	1.300250093879643	-1.341318349649455	-1.341318349649416	0.4620517244279141	-0.01121137083272131	-0.5743254534681426	-0.1365854492041893	-5.561430781862259e-08	6.889301256455434e-09	8.398592552475972e-07	-5.26944570435583e-08	-9.667728836316286e-08	-9.460748844436044e-09	5.207812178392613e-07
0.53	-0.08994258824183493	0.05916745918125386	0.8629163368646771	0.6830112628218659	-0.2272663233678748	-0.1364699316134817	-0.3287168402437746	0.7011927286574712	0.7011927286574751	0.03013747640494359	0.1743712261248914	0.2816655307300847	0.06597983806344004	-0.2194579342303009	-0.06653157885067031	-0.301699381862574	1.252716706066094	-0.01096850900990174	0.2193714001942259	-0.5664783758748129	1.544296136054799	1.544296136054797	-0.2669628727149935	-0.0005033372242135741	0.5940683725983618	0.1627700481611065	-0.07940072232242995	-0.0006271853908603966	0.008850746692443604	-0.3375290564736145	0.04020146044777315	-0.01673548147047455	0.1412537122122251	-31.25479463233208	-30.19352706409155	-9.613959471869316	-1.366551168921843	6.930640852116967	-681.1577901089544	49.87558737991628	0.08637884268067847	0.2364108814546144	-0.1985748044952725	-1.088298147374704	-0.08808775986117801	-0.5257474232438453	1.350157190294916	-1.472704215595207	-1.472704215637981	0.4759102690905169	0.01602670534567211	-0.6212336696904698	-0.161507073803429	-3.467437320430737e-08	8.221447382905031e-08	1.040783514496912e-06	5.232349411233475e-07	-1.639078008296518e-07	7.35522703638647e-08	3.748215966801791e-07
